# xmcd
#
# Track frame offsets: 
#        150
#        15887
#        37972
#        51574
#        67497
#        74809
#        88390
#        106604
#        128470
#        151948
#        159614
#        196571
#        213958
#        236542
#        253402
#        268270
#        289784
#
# Disc length: 4386 seconds
#
# Revision: 0
# Processed by: cddbd v1.5.1PL0 Copyright (c) Steve Scherf et al.
# Submitted via: ExactAudioCopy v0.95a3
#
DISCID=f8112011
DTITLE=Nina Simone - Nina Simone - Disk 2
DYEAR=1900
DGENRE=Jazz
TTITLE0=I Think It's Going To Rain Today
TTITLE1=I Get Along Without You Very Well  (Except Sometimes)
TTITLE2=Nobody's Fault But Mine
TTITLE3=Another Spring
TTITLE4=Compassion
TTITLE5=Seems I'm Never Tired Lovin'  You
TTITLE6=I Shall Be Released
TTITLE7=Just Like Tom Thumb's Blues
TTITLE8=Suzanne
TTITLE9=My Father's Dialog
TTITLE10=Jelly Roll
TTITLE11=Tell It Like It Is
TTITLE12=Mr. Bojangles
TTITLE13=Here Comes The Sun
TTITLE14=Ooh Child
TTITLE15=Poppies
TTITLE16=22nd Century
EXTD=
EXTT0=
EXTT1=
EXTT2=
EXTT3=
EXTT4=
EXTT5=
EXTT6=
EXTT7=
EXTT8=
EXTT9=
EXTT10=
EXTT11=
EXTT12=
EXTT13=
EXTT14=
EXTT15=
EXTT16=
PLAYORDER=
